<svg width="20" height="20" viewBox="0 0 20 20" fill="none" xmlns="http://www.w3.org/2000/svg">
<path d="M9.99963 3.67529C11.16 3.67529 12.2729 4.13607 13.0934 4.95654C13.9139 5.77701 14.3746 6.88997 14.3746 8.05029V13.2212L14.7242 13.2778C14.9174 13.3094 15.0936 13.409 15.2203 13.5581C15.3468 13.707 15.4164 13.8959 15.4166 14.0913V14.0923C15.4167 14.2891 15.3473 14.48 15.2203 14.6304C15.0982 14.775 14.93 14.8721 14.7448 14.9087H5.25549C5.07017 14.8721 4.90211 14.775 4.77991 14.6304C4.65286 14.4799 4.58358 14.2892 4.58362 14.0923V14.0913C4.5838 13.8959 4.65334 13.7071 4.77991 13.5581C4.90661 13.4091 5.08201 13.3094 5.27502 13.2778L5.62463 13.2212V8.05029C5.62463 6.89012 6.08562 5.77698 6.90588 4.95654C7.72628 4.13615 8.83943 3.67538 9.99963 3.67529Z" fill="#0D0D0D" stroke="#0D0D0D" stroke-width="0.833333"/>
<path d="M8.33337 16.8003H11.6664C11.7216 16.8003 11.7748 16.8219 11.8138 16.8608C11.8529 16.8999 11.8754 16.953 11.8754 17.0083C11.8754 17.0636 11.8529 17.1167 11.8138 17.1558C11.7748 17.1947 11.7216 17.2163 11.6664 17.2163H8.33337C8.27812 17.2163 8.22498 17.1948 8.18591 17.1558C8.14684 17.1167 8.12537 17.0636 8.12537 17.0083C8.12537 16.953 8.14684 16.8999 8.18591 16.8608C8.22498 16.8218 8.27812 16.8003 8.33337 16.8003Z" fill="#0D0D0D" stroke="#0D0D0D" stroke-width="0.833333"/>
<mask id="path-3-inside-1_838_16259" fill="white">
<path d="M10.6833 3.67503C10.7806 3.5357 10.8329 3.36996 10.8333 3.20003C10.8333 2.97902 10.7455 2.76706 10.5892 2.61078C10.4329 2.4545 10.221 2.3667 9.99996 2.3667C9.77895 2.3667 9.56698 2.4545 9.4107 2.61078C9.25442 2.76706 9.16663 2.97902 9.16663 3.20003C9.16703 3.36996 9.21937 3.5357 9.31663 3.67503"/>
</mask>
<path d="M10.6833 3.67503C10.7806 3.5357 10.8329 3.36996 10.8333 3.20003C10.8333 2.97902 10.7455 2.76706 10.5892 2.61078C10.4329 2.4545 10.221 2.3667 9.99996 2.3667C9.77895 2.3667 9.56698 2.4545 9.4107 2.61078C9.25442 2.76706 9.16663 2.97902 9.16663 3.20003C9.16703 3.36996 9.21937 3.5357 9.31663 3.67503" fill="#000D26"/>
<path d="M10.8333 3.20003L11.6666 3.20201V3.20003H10.8333ZM9.99996 2.3667L9.99996 1.53337L9.99996 2.3667ZM9.16663 3.20003L8.33329 3.20003L8.33329 3.20201L9.16663 3.20003ZM10.6833 3.67503L11.3666 4.15201C11.5611 3.87333 11.6658 3.54185 11.6666 3.20201L10.8333 3.20003L9.99996 3.19806L9.99996 3.19806L10.6833 3.67503ZM10.8333 3.20003H11.6666C11.6666 2.758 11.491 2.33408 11.1785 2.02152L10.5892 2.61078L9.99996 3.20003L9.99996 3.20003H10.8333ZM10.5892 2.61078L11.1785 2.02152C10.8659 1.70896 10.442 1.53337 9.99996 1.53337L9.99996 2.3667L9.99996 3.20003L9.99996 3.20003L10.5892 2.61078ZM9.99996 2.3667L9.99996 1.53337C9.55793 1.53337 9.13401 1.70896 8.82145 2.02152L9.4107 2.61078L9.99996 3.20003L9.99996 3.20003L9.99996 2.3667ZM9.4107 2.61078L8.82145 2.02152C8.50889 2.33408 8.33329 2.758 8.33329 3.20003H9.16663H9.99996L9.99996 3.20003L9.4107 2.61078ZM9.16663 3.20003L8.33329 3.20201C8.3341 3.54185 8.43878 3.87333 8.6333 4.15201L9.31663 3.67503L9.99996 3.19806L9.99996 3.19806L9.16663 3.20003Z" fill="#0D0D0D" mask="url(#path-3-inside-1_838_16259)"/>
</svg>
