<svg width="20" height="20" viewBox="0 0 20 20" fill="none" xmlns="http://www.w3.org/2000/svg">
<path d="M5.00033 16.6686C6.84128 16.6686 8.33366 15.1763 8.33366 13.3353C8.33366 11.4944 6.84128 10.002 5.00033 10.002C3.15938 10.002 1.66699 11.4944 1.66699 13.3353C1.66699 15.1763 3.15938 16.6686 5.00033 16.6686Z" stroke="#515152" stroke-width="1.25" stroke-linecap="round" stroke-linejoin="round"/>
<path d="M15.0003 16.6686C16.8412 16.6686 18.3337 15.1763 18.3337 13.3353C18.3337 11.4944 16.8412 10.002 15.0003 10.002C13.1594 10.002 11.667 11.4944 11.667 13.3353C11.667 15.1763 13.1594 16.6686 15.0003 16.6686Z" stroke="#515152" stroke-width="1.25" stroke-linecap="round" stroke-linejoin="round"/>
<path d="M5 13.3356H8.64217C8.94183 13.3356 9.2185 13.1747 9.36658 12.9141L12.9167 6.66895" stroke="#515152" stroke-width="1.25" stroke-linecap="round" stroke-linejoin="round"/>
<path d="M10.0003 10.8349L5.83366 5.83496M5.83366 5.83496H4.16699M5.83366 5.83496H7.50033" stroke="#515152" stroke-width="1.25" stroke-linecap="round" stroke-linejoin="round"/>
<path d="M16.6694 5.18251C16.4994 4.70251 16.1994 3.95251 15.1994 3.60251C14.5494 3.35251 12.9494 3.25251 12.7494 3.40251C12.4601 3.47485 12.4494 3.80251 12.5894 4.25251C12.7032 4.73497 12.8794 5.35714 13.0394 5.95251C13.4494 7.47817 14.3494 10.7825 15.0194 13.3325" stroke="#515152" stroke-width="1.25" stroke-linecap="round"/>
</svg>
