<svg width="20" height="20" viewBox="0 0 20 20" fill="none" xmlns="http://www.w3.org/2000/svg">
<path d="M9.99984 1.6665C5.40817 1.6665 1.6665 5.40817 1.6665 9.99984C1.6665 14.5915 5.40817 18.3332 9.99984 18.3332C14.5915 18.3332 18.3332 14.5915 18.3332 9.99984C18.3332 5.40817 14.5915 1.6665 9.99984 1.6665ZM13.6248 12.9748C13.5082 13.1748 13.2998 13.2832 13.0832 13.2832C12.9748 13.2832 12.8665 13.2582 12.7665 13.1915L10.1832 11.6498C9.5415 11.2665 9.0665 10.4248 9.0665 9.68317V6.2665C9.0665 5.92484 9.34984 5.6415 9.6915 5.6415C10.0332 5.6415 10.3165 5.92484 10.3165 6.2665V9.68317C10.3165 9.98317 10.5665 10.4248 10.8248 10.5748L13.4082 12.1165C13.7082 12.2915 13.8082 12.6748 13.6248 12.9748Z" fill="#F24E1E"/>
</svg>
