<svg width="20" height="20" viewBox="0 0 20 20" fill="none" xmlns="http://www.w3.org/2000/svg">
<path d="M12.7246 2.10596C12.7773 2.08533 12.8306 2.09473 12.8721 2.13623C14.1047 3.36885 16.2526 5.54162 17.4541 6.75146L17.4551 6.75244C17.4764 6.77379 17.4833 6.79161 17.4854 6.8042C17.4878 6.81925 17.4859 6.83964 17.4766 6.86084C17.4582 6.90221 17.4191 6.93311 17.3584 6.93311C16.4159 6.93311 15.3183 6.9336 14.5293 6.92529H14.5254C13.4862 6.92529 12.6505 6.09229 12.6504 5.1167V2.2085C12.6504 2.17968 12.6582 2.16131 12.668 2.14795C12.6793 2.13252 12.6983 2.1163 12.7246 2.10596Z" fill="#0D0D0D" stroke="#0D0D0D" stroke-width="0.833333"/>
<path d="M6.7251 2.0835H10.2583C10.4864 2.0835 10.6751 2.27144 10.6753 2.49951V4.90771C10.6753 7.11283 12.4702 8.90771 14.6753 8.90771H17.0835C17.3117 8.90772 17.5004 9.09655 17.5005 9.32471V13.6919C17.5004 15.077 17.0197 16.1234 16.2729 16.8247C15.522 17.5298 14.4688 17.9165 13.2749 17.9165H6.7251C5.53117 17.9165 4.47796 17.5299 3.72705 16.8247C2.9803 16.1234 2.50058 15.077 2.50049 13.6919V6.30811C2.5005 4.92285 2.98025 3.8767 3.72705 3.17529C4.47797 2.47005 5.53108 2.08351 6.7251 2.0835ZM6.25049 13.1245C5.6787 13.1245 5.2085 13.5947 5.2085 14.1665C5.2085 14.7383 5.6787 15.2085 6.25049 15.2085H9.5835C10.1553 15.2085 10.6255 14.7383 10.6255 14.1665C10.6255 13.5947 10.1553 13.1245 9.5835 13.1245H6.25049ZM6.25049 9.7915C5.6787 9.7915 5.2085 10.2617 5.2085 10.8335C5.20867 11.4051 5.67881 11.8745 6.25049 11.8745H11.2505C11.822 11.8743 12.2913 11.405 12.2915 10.8335C12.2915 10.2618 11.8221 9.79168 11.2505 9.7915H6.25049Z" fill="#0D0D0D" stroke="#0D0D0D" stroke-width="0.833333"/>
</svg>
