<svg width="20" height="20" viewBox="0 0 20 20" fill="none" xmlns="http://www.w3.org/2000/svg">
<path d="M10.9136 0.611395L13.2071 5.59729C13.3068 5.89644 13.6059 6.09587 13.9051 6.19559L19.0904 6.99333C19.9879 6.99333 20.287 7.99051 19.6887 8.58882L15.8994 12.4778C15.7 12.6772 15.6003 13.0761 15.6003 13.3753L16.4978 18.76C16.5975 19.5578 15.7997 20.2558 15.1017 19.8569L10.415 17.2643C10.1158 17.0648 9.81666 17.0648 9.51751 17.2643L4.83077 19.8569C4.13275 20.2558 3.23529 19.6575 3.43472 18.76L4.33218 13.3753C4.4319 13.0761 4.23247 12.6772 4.03303 12.4778L0.243755 8.58882C-0.254834 7.99051 0.044319 6.99333 0.842061 6.89362L6.02739 6.09587C6.32654 6.09587 6.62569 5.79672 6.72541 5.49757L9.01892 0.511677C9.51751 -0.186347 10.5147 -0.186347 10.9136 0.611395Z" fill="#1E45F2"/>
</svg>
