<svg width="20" height="20" viewBox="0 0 20 20" fill="none" xmlns="http://www.w3.org/2000/svg">
<g clip-path="url(#clip0_1059_10378)">
<path d="M3.34863 14.2593C4.00121 14.423 4.66057 14.5593 5.31641 14.6753C5.43572 15.3345 5.57081 15.993 5.7334 16.646C4.77856 16.0336 3.96415 15.2167 3.34863 14.2593Z" fill="#0D0D0D" stroke="#0D0D0D" stroke-width="0.833333"/>
<path d="M16.6562 14.2593C16.0381 15.2214 15.2139 16.042 14.2471 16.6626C14.4219 16.0048 14.5756 15.3423 14.6943 14.6743C15.3534 14.5582 16.0076 14.423 16.6562 14.2593Z" fill="#0D0D0D" stroke="#0D0D0D" stroke-width="0.833333"/>
<path d="M14.2539 3.33789C15.2231 3.95878 16.046 4.78312 16.666 5.75293C16.0144 5.58025 15.3577 5.43216 14.6943 5.31055C14.5772 4.64732 14.4283 3.98883 14.2539 3.33789Z" fill="#0D0D0D" stroke="#0D0D0D" stroke-width="0.833333"/>
<path d="M6.37507 2.5748C6.07507 3.59147 5.8584 4.6248 5.6834 5.6748C4.6084 5.84147 3.54173 6.10814 2.4834 6.4248C3.29173 4.7498 4.6334 3.3748 6.29173 2.5498C6.31673 2.5498 6.35006 2.5748 6.37507 2.5748Z" fill="#0D0D0D"/>
<path d="M12.908 5.4915C10.9746 5.27484 9.02464 5.27484 7.09131 5.4915C7.29964 4.34984 7.56631 3.20817 7.94131 2.10817C7.95797 2.0415 7.94964 1.9915 7.95798 1.92484C8.61631 1.7665 9.29131 1.6665 9.99964 1.6665C10.6996 1.6665 11.383 1.7665 12.033 1.92484C12.0413 1.9915 12.0413 2.0415 12.058 2.10817C12.433 3.2165 12.6996 4.34984 12.908 5.4915Z" fill="#0D0D0D"/>
<path d="M5.4915 12.908C4.3415 12.6996 3.20817 12.433 2.10817 12.058C2.0415 12.0413 1.9915 12.0496 1.92484 12.0413C1.7665 11.383 1.6665 10.708 1.6665 9.99964C1.6665 9.29964 1.7665 8.61631 1.92484 7.96631C1.9915 7.95798 2.0415 7.95797 2.10817 7.94131C3.2165 7.57464 4.3415 7.29964 5.4915 7.09131C5.28317 9.02464 5.28317 10.9746 5.4915 12.908Z" fill="#0D0D0D"/>
<path d="M18.3333 9.99964C18.3333 10.708 18.2333 11.383 18.075 12.0413C18.0083 12.0496 17.9583 12.0413 17.8916 12.058C16.7833 12.4246 15.65 12.6996 14.5083 12.908C14.725 10.9746 14.725 9.02464 14.5083 7.09131C15.65 7.29964 16.7916 7.56631 17.8916 7.94131C17.9583 7.95797 18.0083 7.96631 18.075 7.96631C18.2333 8.62464 18.3333 9.29964 18.3333 9.99964Z" fill="#0D0D0D"/>
<path d="M12.908 14.5083C12.6996 15.6583 12.433 16.7916 12.058 17.8916C12.0413 17.9583 12.0413 18.0083 12.033 18.075C11.383 18.2333 10.6996 18.3333 9.99964 18.3333C9.29131 18.3333 8.61631 18.2333 7.95798 18.075C7.94964 18.0083 7.95797 17.9583 7.94131 17.8916C7.57464 16.7833 7.29964 15.6583 7.09131 14.5083C8.05798 14.6166 9.02464 14.6916 9.99964 14.6916C10.9746 14.6916 11.9496 14.6166 12.908 14.5083Z" fill="#0D0D0D"/>
<path d="M13.1359 13.1359C11.0517 13.3989 8.94797 13.3989 6.86373 13.1359C6.60076 11.0517 6.60076 8.94797 6.86373 6.86373C8.94797 6.60076 11.0517 6.60076 13.1359 6.86373C13.3989 8.94797 13.3989 11.0517 13.1359 13.1359Z" fill="#0D0D0D"/>
</g>
<defs>
<clipPath id="clip0_1059_10378">
<rect width="20" height="20" fill="white"/>
</clipPath>
</defs>
</svg>
