<svg width="49" height="48" viewBox="0 0 49 48" fill="none" xmlns="http://www.w3.org/2000/svg">
<path d="M1.98444 29.2898C1.98444 27.0298 2.42957 24.7918 3.29447 22.7039C4.15938 20.6158 5.42704 18.7186 7.02516 17.1205C8.62327 15.5224 10.5204 14.2547 12.6084 13.3898C14.6965 12.525 16.9344 12.0798 19.1945 12.0798V29.2898H1.98444Z" fill="#0D0D0D"/>
<path d="M1.98444 29.2898C1.98444 31.5499 2.42957 33.7878 3.29447 35.8759C4.15938 37.9639 5.42704 39.8611 7.02516 41.4592C8.62327 43.0573 10.5204 44.325 12.6084 45.1899C14.6965 46.0548 16.9344 46.4999 19.1945 46.4999V29.2898H1.98444Z" fill="#0D0D0D"/>
<path d="M36.4043 29.2898C36.4043 31.5499 35.9595 33.7878 35.0947 35.8759C34.2298 37.9639 32.9622 39.8611 31.3638 41.4592C29.7657 43.0573 27.8685 44.325 25.7804 45.1899C23.6925 46.0548 21.4545 46.4999 19.1945 46.4999V29.2898H36.4043Z" fill="#0D0D0D"/>
<path d="M47.0159 14.422C47.0159 21.5586 41.2303 27.344 34.0938 27.344H21.1719V14.422C21.1719 7.2854 26.9573 1.5 34.0938 1.5C41.2303 1.5 47.0159 7.2854 47.0159 14.422Z" fill="#49B76F"/>
</svg>
