<svg width="24" height="24" viewBox="0 0 24 24" fill="none" xmlns="http://www.w3.org/2000/svg">
<path d="M9.09644 3.31494C10.3496 2.34421 12.3345 2.23606 13.7234 3.02881L13.9929 3.19971L19.7537 7.22998C20.2227 7.55844 20.6665 8.09711 20.9939 8.72412C21.3213 9.3513 21.5095 10.0244 21.5095 10.6001V17.3804C21.5094 19.654 19.664 21.5003 17.3904 21.5005H6.61011C4.3378 21.5005 2.49022 19.6457 2.48999 17.3706V10.4702L2.4978 10.2651C2.53449 9.7765 2.69782 9.22084 2.95874 8.69092C3.25678 8.08564 3.66124 7.55672 4.08765 7.22412L9.09644 3.31494ZM11.9998 13.7505C11.3137 13.7506 10.7498 14.3144 10.7498 15.0005V18.0005C10.7499 18.6864 11.3138 19.2504 11.9998 19.2505C12.6858 19.2505 13.2496 18.6865 13.2498 18.0005V15.0005C13.2498 14.3143 12.6859 13.7505 11.9998 13.7505Z" fill="#49B76F" stroke="#49B76F"/>
</svg>
