<svg width="20" height="20" viewBox="0 0 20 20" fill="none" xmlns="http://www.w3.org/2000/svg">
<g clip-path="url(#clip0_838_16252)">
<path d="M9.9917 1.87549H10.0005C12.8054 1.87565 15.9551 3.51857 16.7769 7.13428C17.7003 11.2076 15.2135 14.6966 12.853 16.9663L12.8511 16.9683C12.057 17.7395 11.0293 18.1254 10.0005 18.1255C8.97171 18.1255 7.94261 17.7394 7.13916 16.9663C4.77892 14.6969 2.29067 11.1992 3.21436 7.12549C4.03603 3.51071 7.19401 1.87551 9.9917 1.87549ZM10.0005 5.55029C8.32037 5.55029 6.9585 6.91217 6.9585 8.59229C6.95874 10.2722 8.32052 11.6333 10.0005 11.6333C11.6803 11.6331 13.0413 10.2721 13.0415 8.59229C13.0415 6.9123 11.6804 5.55051 10.0005 5.55029Z" fill="#49B76F" stroke="#49B76F" stroke-width="0.833333"/>
</g>
<defs>
<clipPath id="clip0_838_16252">
<rect width="20" height="20" fill="white"/>
</clipPath>
</defs>
</svg>
