<svg width="20" height="20" viewBox="0 0 20 20" fill="none" xmlns="http://www.w3.org/2000/svg">
<path d="M10 1.4585C12.426 1.4585 13.6852 2.2237 14.3623 3.18701C15.0607 4.18066 15.208 5.47585 15.208 6.6665V7.95459C15.0737 7.94404 14.935 7.93537 14.792 7.9292V6.6665C14.792 5.33523 14.609 4.11152 13.8701 3.22705C13.117 2.32557 11.8739 1.87451 10 1.87451C8.12608 1.87451 6.88302 2.32557 6.12988 3.22705C5.39102 4.11152 5.20801 5.33523 5.20801 6.6665V7.9292C5.06498 7.93537 4.9263 7.94404 4.79199 7.95459V6.6665C4.79199 5.47585 4.93933 4.18066 5.6377 3.18701C6.31483 2.2237 7.57404 1.4585 10 1.4585Z" fill="#0D0D0D" stroke="#0D0D0D" stroke-width="0.833333"/>
<path d="M14.3677 8.75049L14.6997 8.75928C15.0211 8.77179 15.3104 8.79435 15.5688 8.82959L15.5747 8.83057C16.5777 8.95252 17.1092 9.24472 17.4253 9.73682C17.7659 10.2671 17.9165 11.1139 17.9165 12.5005V14.1665C17.9165 15.836 17.6979 16.713 17.2056 17.2056C16.7131 17.6981 15.8361 17.9165 14.1665 17.9165H5.8335C4.16385 17.9165 3.28693 17.6981 2.79443 17.2056C2.30194 16.7131 2.0835 15.8361 2.0835 14.1665V12.5005C2.0835 11.1139 2.23412 10.2671 2.57471 9.73682C2.8908 9.24477 3.42228 8.9525 4.42529 8.83057L4.43115 8.82959C4.68968 8.79434 4.97881 8.77179 5.30029 8.75928L5.63232 8.75049H14.3677ZM7.4126 12.3267C7.11497 12.1081 6.72601 12.0298 6.36279 12.1235L6.20068 12.1782L6.19775 12.1792C6.19337 12.181 6.18845 12.1822 6.18408 12.1841V12.1851C6.02324 12.2496 5.90172 12.3374 5.79639 12.4321L5.77979 12.4468L5.76514 12.4634C5.65983 12.5804 5.57551 12.712 5.51514 12.8569C5.45579 12.9995 5.4165 13.1621 5.4165 13.3335C5.4165 13.6636 5.55383 13.981 5.77197 14.2114L5.78369 14.2241L5.79639 14.2349C5.90296 14.3308 6.02624 14.4192 6.18994 14.4839V14.4849C6.33248 14.5442 6.4951 14.5835 6.6665 14.5835C6.99665 14.5835 7.31399 14.4462 7.54443 14.228L7.55322 14.2202L7.56104 14.2114C7.77918 13.981 7.9165 13.6636 7.9165 13.3335C7.9165 13.1621 7.87722 12.9995 7.81787 12.8569C7.7575 12.712 7.67317 12.5804 7.56787 12.4634L7.56006 12.4546L7.55322 12.4468L7.4126 12.3267ZM10.7886 12.3618C10.3045 11.9811 9.55735 12.0036 9.11377 12.4468L9.10596 12.4556C8.88919 12.6844 8.74951 12.9928 8.74951 13.3335C8.74951 13.5049 8.78882 13.6675 8.84814 13.8101C8.90849 13.9549 8.99291 14.0866 9.09814 14.2036L9.10986 14.2163L9.12158 14.228C9.35031 14.4446 9.65897 14.5834 9.99951 14.5835C10.3298 14.5835 10.648 14.4464 10.8784 14.228L10.8901 14.2163L10.9009 14.2036C11.0062 14.0865 11.0905 13.955 11.1509 13.8101C11.2103 13.6675 11.2495 13.5049 11.2495 13.3335C11.2495 12.9928 11.1107 12.6844 10.894 12.4556L10.8882 12.4487L10.8823 12.4429L10.7886 12.3618ZM14.2192 12.4468C13.746 11.974 12.9268 11.9794 12.4507 12.4429L12.4448 12.4487L12.439 12.4556C12.2223 12.6844 12.0835 12.9928 12.0835 13.3335C12.0835 13.6742 12.2223 13.9826 12.439 14.2114L12.4468 14.2202L12.4546 14.228C12.6851 14.4464 13.0032 14.5835 13.3335 14.5835C13.6636 14.5834 13.981 14.4462 14.2114 14.228L14.2192 14.2202L14.2271 14.2114C14.4454 13.981 14.5835 13.6638 14.5835 13.3335C14.5835 13.2478 14.5691 13.1578 14.562 13.1079L14.561 13.0981L14.5269 12.9604C14.5171 12.9311 14.5031 12.9036 14.4907 12.8755C14.4648 12.8006 14.4261 12.7201 14.3706 12.644H14.3716C14.327 12.5772 14.2829 12.5225 14.2505 12.4819L14.2358 12.4634L14.2192 12.4468Z" fill="#0D0D0D" stroke="#0D0D0D" stroke-width="0.833333"/>
</svg>
