<svg width="20" height="20" viewBox="0 0 20 20" fill="none" xmlns="http://www.w3.org/2000/svg">
<path d="M5.8335 2.0835H14.1665C16.238 2.0835 17.9165 3.75698 17.9165 5.81689V11.6333C17.9164 13.6932 16.238 15.3667 14.1665 15.3667H12.9165C12.526 15.3667 12.1544 15.5543 11.9185 15.8647L11.9175 15.8657L10.6675 17.5239L10.6665 17.5249C10.4586 17.802 10.2127 17.9077 9.99951 17.9077C9.78642 17.9076 9.54123 17.8018 9.3335 17.5249L9.33252 17.5239L8.08252 15.8657L8.07959 15.8618L7.98193 15.7524C7.8776 15.6504 7.75438 15.5684 7.63428 15.5083C7.47474 15.4285 7.27896 15.3668 7.0835 15.3667H5.8335C3.76203 15.3667 2.08357 13.6932 2.0835 11.6333V5.81689C2.0835 3.75698 3.76198 2.0835 5.8335 2.0835ZM5.8335 9.7915C5.26171 9.7915 4.7915 10.2617 4.7915 10.8335C4.79168 11.4051 5.26182 11.8745 5.8335 11.8745H10.8335C11.405 11.8743 11.8743 11.405 11.8745 10.8335C11.8745 10.2618 11.4051 9.79168 10.8335 9.7915H5.8335ZM5.8335 5.62451C5.26171 5.62451 4.7915 6.09472 4.7915 6.6665C4.7915 7.23829 5.26171 7.7085 5.8335 7.7085H14.1665C14.7383 7.7085 15.2085 7.23829 15.2085 6.6665C15.2085 6.09472 14.7383 5.62451 14.1665 5.62451H5.8335Z" fill="#0D0D0D" stroke="#0D0D0D" stroke-width="0.833333"/>
</svg>
