<svg width="70" height="70" viewBox="0 0 70 70" fill="none" xmlns="http://www.w3.org/2000/svg">
<g clip-path="url(#clip0_1009_40300)">
<path d="M48.1022 32.083L61.2272 39.3747L56.8522 24.7913L68.5189 14.583L53.9356 13.1247L48.1022 1.45801L42.2689 13.1247L27.6855 14.583L39.3522 24.7913L34.9772 39.3747L48.1022 32.083Z" fill="white"/>
<path opacity="0.1" d="M48.1025 1.45801V20.4163L53.9359 13.1247L48.1025 1.45801Z" fill="black"/>
<path opacity="0.1" d="M48.1025 20.4163L68.5192 14.583L56.8525 24.7913L48.1025 20.4163Z" fill="black"/>
<path opacity="0.1" d="M48.1025 20.417L56.8525 24.792L61.2275 39.3753L48.1025 20.417Z" fill="black"/>
<path opacity="0.2" d="M48.1019 1.45801V20.4163L42.2686 13.1247L48.1019 1.45801Z" fill="white"/>
<path d="M39.3521 24.792L34.1896 20.417H33.5187C0.706234 32.4628 1.4354 56.8753 1.4354 56.8753L16.0187 51.042C16.0187 51.042 15.6687 62.5337 21.8521 68.542C21.8521 68.542 23.7771 48.5045 35.0937 39.0253L39.3521 24.792Z" fill="white"/>
<path opacity="0.26" d="M36.2604 22.0795L34.1896 20.417H33.5187C0.706234 32.4628 1.4354 56.8753 1.4354 56.8753L4.5854 55.6212C5.48957 48.8545 10.4187 31.617 36.2604 22.0795Z" fill="white"/>
<path opacity="0.1" d="M48.1022 20.4163L27.6855 14.583L39.3522 24.7913L48.1022 20.4163Z" fill="black"/>
<path opacity="0.1" d="M48.1025 20.417V32.0837L34.9775 39.3753L48.1025 20.417Z" fill="black"/>
<path opacity="0.1" d="M19.1973 65.0125C19.906 66.3104 20.7985 67.5004 21.8514 68.5417C21.8514 68.5417 23.7764 48.5042 34.9764 39.025L36.1431 35.1167C21.8514 42.4375 19.9848 59.7625 19.1973 65.0125Z" fill="black"/>
<path d="M69.9771 14.1461C69.802 13.5832 69.3091 13.1807 68.7229 13.1253L54.8687 11.667L49.4145 0.816974C48.98 0.0994743 48.0495 -0.130942 47.3321 0.303641C47.122 0.431974 46.947 0.606974 46.8187 0.816974L41.3354 11.667L27.5395 13.1253C26.7375 13.2099 26.157 13.9303 26.2445 14.7295C26.2825 15.0882 26.4545 15.4207 26.7229 15.6628L31.3312 19.6878C-0.372955 32.0836 -0.0229526 56.6711 -0.0229526 56.9336C-0.0521192 57.7386 0.577881 58.4153 1.38288 58.4416C1.58996 58.4503 1.79705 58.4124 1.98955 58.3336L14.5604 53.1711C14.7645 56.9628 15.8437 64.8378 20.802 69.592C21.3591 70.1753 22.2808 70.1957 22.8641 69.6386C23.1266 69.3878 23.2841 69.0495 23.3104 68.6878C23.3104 68.4836 25.2354 49.9045 35.4145 40.717C35.4145 40.717 35.5895 40.717 35.677 40.717L48.1021 33.8045L60.5271 40.717C60.7458 40.8132 60.9879 40.8541 61.2271 40.8336C62.0321 40.8336 62.6854 40.1803 62.6854 39.3753C62.6854 39.2382 62.665 39.0982 62.627 38.967L58.5145 25.2586L69.4812 15.6628C69.9304 15.3011 70.1258 14.7061 69.9771 14.1461ZM20.8895 65.0128C18.5941 60.737 17.4216 55.9507 17.477 51.1003C17.5733 50.3011 17.0016 49.5749 16.1995 49.4816C15.9487 49.4495 15.695 49.4874 15.4645 49.5836L2.89371 54.6586C3.56455 48.592 7.76455 31.3253 33.6645 21.8461L37.5729 25.2586L33.8104 38.1795C25.177 45.7045 21.9687 58.8295 20.8895 65.0128ZM55.8895 23.6836C55.4579 24.0599 55.2887 24.652 55.452 25.2003L58.8062 36.342L48.8312 30.8003C48.3879 30.5495 47.8454 30.5495 47.4021 30.8003L37.427 36.342L40.8104 25.2003C40.9737 24.652 40.8045 24.0599 40.3729 23.6836L31.1854 15.692L42.4145 14.5836C42.9133 14.5399 43.3537 14.2424 43.5812 13.7961L48.1021 4.72531L52.6229 13.7961C52.8504 14.2424 53.2908 14.5399 53.7895 14.5836L65.0187 15.7211L55.8895 23.6836Z" fill="#093719"/>
<path d="M69.9771 14.1461C69.802 13.5832 69.3091 13.1807 68.7229 13.1253L54.8687 11.667L49.4145 0.816974C48.98 0.0994743 48.0495 -0.130942 47.3321 0.303641C47.122 0.431974 46.947 0.606974 46.8187 0.816974L41.3354 11.667L27.5395 13.1253C26.7375 13.2099 26.157 13.9303 26.2445 14.7295C26.2825 15.0882 26.4545 15.4207 26.7229 15.6628L31.3312 19.6878C-0.372955 32.0836 -0.0229526 56.6711 -0.0229526 56.9336C-0.0521192 57.7386 0.577881 58.4153 1.38288 58.4416C1.58996 58.4503 1.79705 58.4124 1.98955 58.3336L14.5604 53.1711C14.7645 56.9628 15.8437 64.8378 20.802 69.592C21.3591 70.1753 22.2808 70.1957 22.8641 69.6386C23.1266 69.3878 23.2841 69.0495 23.3104 68.6878C23.3104 68.4836 25.2354 49.9045 35.4145 40.717C35.4145 40.717 35.5895 40.717 35.677 40.717L48.1021 33.8045L60.5271 40.717C60.7458 40.8132 60.9879 40.8541 61.2271 40.8336C62.0321 40.8336 62.6854 40.1803 62.6854 39.3753C62.6854 39.2382 62.665 39.0982 62.627 38.967L58.5145 25.2586L69.4812 15.6628C69.9304 15.3011 70.1258 14.7061 69.9771 14.1461Z" fill="url(#paint0_linear_1009_40300)"/>
</g>
<defs>
<linearGradient id="paint0_linear_1009_40300" x1="12.3061" y1="24.4921" x2="59.5179" y2="46.4931" gradientUnits="userSpaceOnUse">
<stop stop-color="white" stop-opacity="0.2"/>
<stop offset="1" stop-color="white" stop-opacity="0"/>
</linearGradient>
<clipPath id="clip0_1009_40300">
<rect width="70" height="70" fill="white"/>
</clipPath>
</defs>
</svg>
