<svg width="20" height="20" viewBox="0 0 20 20" fill="none" xmlns="http://www.w3.org/2000/svg">
<path d="M17.5 4.98307C14.725 4.70807 11.9333 4.56641 9.15 4.56641C7.5 4.56641 5.85 4.64974 4.2 4.81641L2.5 4.98307" stroke="#D5000A" stroke-width="1.25" stroke-linecap="round" stroke-linejoin="round"/>
<path d="M7.08325 4.1415L7.26659 3.04984C7.39992 2.25817 7.49992 1.6665 8.90825 1.6665H11.0916C12.4999 1.6665 12.6083 2.2915 12.7333 3.05817L12.9166 4.1415" stroke="#D5000A" stroke-width="1.25" stroke-linecap="round" stroke-linejoin="round"/>
<path d="M15.7082 7.6167L15.1665 16.0084C15.0748 17.3167 14.9998 18.3334 12.6748 18.3334H7.32484C4.99984 18.3334 4.92484 17.3167 4.83317 16.0084L4.2915 7.6167" stroke="#D5000A" stroke-width="1.25" stroke-linecap="round" stroke-linejoin="round"/>
<path d="M8.6084 13.75H11.3834" stroke="#D5000A" stroke-width="1.25" stroke-linecap="round" stroke-linejoin="round"/>
<path d="M7.91675 10.4165H12.0834" stroke="#D5000A" stroke-width="1.25" stroke-linecap="round" stroke-linejoin="round"/>
</svg>
