<svg width="17" height="13" viewBox="0 0 17 13" fill="none" xmlns="http://www.w3.org/2000/svg">
<path d="M0.758561 9.82208C0.660218 9.95542 0.688592 10.1432 0.821935 10.2416C0.955278 10.3399 1.1431 10.3116 1.24144 10.1782L1 10.0001L0.758561 9.82208ZM15.2785 3.88873C15.217 3.73489 15.0424 3.66007 14.8886 3.7216L12.3817 4.72432C12.2278 4.78585 12.153 4.96044 12.2146 5.11427C12.2761 5.26811 12.4507 5.34294 12.6045 5.2814L14.8329 4.3901L15.7242 6.61846C15.7857 6.77229 15.9603 6.84712 16.1141 6.78559C16.268 6.72406 16.3428 6.54947 16.2813 6.39563L15.2785 3.88873ZM1 10.0001C1.24144 10.1782 1.24144 10.1782 1.24147 10.1782C1.24151 10.1781 1.24155 10.1781 1.24163 10.1779C1.24178 10.1777 1.24203 10.1774 1.24236 10.177C1.24302 10.1761 1.24404 10.1747 1.2454 10.1728C1.24814 10.1692 1.25227 10.1636 1.25776 10.1562C1.26874 10.1414 1.28515 10.1194 1.30667 10.0907C1.34972 10.0332 1.41321 9.94893 1.49459 9.84224C1.65735 9.62885 1.89155 9.32591 2.17669 8.96852C2.74751 8.25306 3.52022 7.32224 4.33156 6.45518C5.14724 5.58347 5.98533 4.79439 6.68773 4.34699C7.04216 4.12124 7.33097 4.003 7.54597 3.98242C7.64872 3.97258 7.72473 3.98602 7.78243 4.01182C7.83846 4.03688 7.89503 4.08144 7.94847 4.16365L8.2 4.00014L8.45153 3.83664C8.34247 3.66887 8.2006 3.54157 8.02738 3.4641C7.85584 3.38739 7.67179 3.36763 7.48879 3.38515C7.13231 3.41928 6.74691 3.59793 6.36539 3.84093C5.59592 4.33105 4.71526 5.16696 3.89345 6.04523C3.06728 6.92815 2.28374 7.8723 1.70768 8.59432C1.41939 8.95565 1.18249 9.26208 1.01752 9.47837C0.935027 9.58652 0.870492 9.67217 0.826482 9.73092C0.804476 9.76029 0.7876 9.78294 0.776173 9.79831C0.77046 9.806 0.766109 9.81187 0.76316 9.81586C0.761686 9.81785 0.760562 9.81937 0.759794 9.82041C0.75941 9.82093 0.759115 9.82133 0.758909 9.82161C0.758806 9.82174 0.758719 9.82186 0.758668 9.82193C0.758603 9.82202 0.758561 9.82208 1 10.0001ZM8.2 4.00014L7.94847 4.16365C8.2412 4.61396 8.4634 5.34648 8.66083 6.20048C8.75822 6.62169 8.84723 7.0609 8.93613 7.4966C9.02466 7.93044 9.11314 8.36121 9.20828 8.75764C9.30321 9.15319 9.40685 9.52361 9.52761 9.8359C9.64598 10.142 9.79219 10.4233 9.98759 10.6136C10.1998 10.8202 10.4779 10.923 10.7967 10.8302C11.0812 10.7474 11.3553 10.5198 11.6297 10.1931L11.4 10.0001L11.1703 9.80719C10.9197 10.1055 10.7407 10.2216 10.6291 10.2541C10.5518 10.2766 10.4908 10.2661 10.4062 10.1837C10.3047 10.0849 10.1962 9.90132 10.0872 9.6195C9.98065 9.34388 9.88429 9.00334 9.79172 8.61762C9.69936 8.23278 9.61284 7.81197 9.52402 7.37665C9.43558 6.9432 9.34491 6.49568 9.24542 6.06533C9.0491 5.21619 8.8088 4.38624 8.45153 3.83664L8.2 4.00014ZM11.4 10.0001L11.6297 10.1931C12.6987 8.92039 13.61 7.40004 14.2518 6.20449C14.5734 5.60541 14.8289 5.08511 15.0041 4.71419C15.0917 4.52868 15.1593 4.38041 15.2052 4.27819C15.2281 4.22708 15.2456 4.18746 15.2574 4.16045C15.2633 4.14695 15.2678 4.13659 15.2709 4.12953C15.2724 4.12599 15.2736 4.12328 15.2744 4.12141C15.2748 4.12047 15.2751 4.11974 15.2754 4.11923C15.2755 4.11897 15.2756 4.11877 15.2756 4.11862C15.2756 4.11854 15.2757 4.11847 15.2757 4.11843C15.2757 4.11837 15.2757 4.11832 15 4.00014C14.7243 3.88196 14.7243 3.88194 14.7243 3.88194C14.7243 3.88195 14.7243 3.88196 14.7242 3.88199C14.7242 3.88205 14.7242 3.88216 14.7241 3.88233C14.724 3.88267 14.7237 3.88321 14.7234 3.88397C14.7227 3.88548 14.7217 3.88782 14.7204 3.89099C14.7176 3.89732 14.7134 3.90692 14.7079 3.91966C14.6967 3.94514 14.6799 3.98316 14.6577 4.03263C14.6133 4.13157 14.5474 4.27626 14.4616 4.45793C14.2899 4.82136 14.0391 5.33228 13.7232 5.92069C13.09 7.1001 12.2013 8.57976 11.1703 9.80719L11.4 10.0001Z" fill="#00A14B"/>
</svg>
