<svg width="24" height="24" viewBox="0 0 24 24" fill="none" xmlns="http://www.w3.org/2000/svg">
<path d="M7.80957 2.5H16.1904C17.9108 2.50008 19.2239 3.011 20.1064 3.89355C20.989 4.77611 21.4999 6.08922 21.5 7.80957V16.1904C21.4999 17.5195 21.1952 18.6038 20.6533 19.4307C20.1141 20.2534 19.3208 20.8511 18.2871 21.1836L18.2754 21.1875C17.68 21.395 16.978 21.5 16.1904 21.5H7.80957C7.022 21.5 6.32001 21.395 5.72461 21.1875L5.71289 21.1836C4.67923 20.8511 3.88592 20.2534 3.34668 19.4307C2.80482 18.6038 2.50007 17.5195 2.5 16.1904V7.80957C2.50009 6.08922 3.011 4.77611 3.89355 3.89355C4.77611 3.011 6.08922 2.50009 7.80957 2.5ZM7.80957 3C6.3157 3.00008 5.09233 3.39595 4.24414 4.24414C3.39595 5.09233 3.00008 6.3157 3 7.80957V16.2002C3.00003 17.3329 3.22509 18.308 3.70996 19.085C4.19998 19.87 4.93115 20.4135 5.86621 20.7158L5.94141 20.7402H6.33594L6.47559 20.4678C7.3566 18.7417 9.45607 17.4697 12 17.4697C14.5441 17.4697 16.6534 18.7517 17.5244 20.4668L17.7188 20.8496L18.127 20.7148C19.0688 20.4027 19.8027 19.8579 20.293 19.0723C20.7781 18.2949 20.9999 17.3222 21 16.1904V7.80957C20.9999 6.3157 20.604 5.09233 19.7559 4.24414C18.9077 3.39595 17.6843 3.00008 16.1904 3H7.80957Z" fill="#49B76F" stroke="#49B76F"/>
<path d="M12 8.5C13.7038 8.50004 15.0801 9.87625 15.0801 11.5801C15.08 13.2857 13.702 14.6699 12 14.6699C10.298 14.6699 8.91996 13.2857 8.91992 11.5801C8.91992 9.87622 10.2961 8.5 12 8.5Z" fill="#49B76F" stroke="#49B76F"/>
</svg>
